PathFileType	4	(X/Y/Z)	\\Move.snu.ac.kr\motion\Animal\091204_091205_Bird\091205_bird\Project 2\Capture day 2\Session 1\pigeon_028.trc
DataRate	CameraRate	NumFrames	NumMarkers	Units	OrigDataRate	OrigDataStartFrame	OrigNumFrames
240.0	240.0	17	14	mm	240.0	320	6061
Frame#	Time	14MarkersBird:Head			14MarkersBird:C_back			14MarkersBird:Spine			14MarkersBird:L-shoulder			14MarkersBird:L-elbow			14MarkersBird:L-wrist			14MarkersBird:L-hand			14MarkersBird:R-shoulder			14MarkersBird:R-elbow			14MarkersBird:R-Wrist			14MarkersBird:R-hand			14MarkersBird:C_Tail			14MarkersBird:L-Tale			14MarkersBird:R-Tale			
		X1	Y1	Z1	X2	Y2	Z2	X3	Y3	Z3	X4	Y4	Z4	X5	Y5	Z5	X6	Y6	Z6	X7	Y7	Z7	X8	Y8	Z8	X9	Y9	Z9	X10	Y10	Z10	X11	Y11	Z11	X12	Y12	Z12	X13	Y13	Z13	X14	Y14	Z14	

4614	19.221	1043.31628	253.04659	-233.26199	985.51746	252.11949	-204.09055	946.77106	232.73207	-184.67754	1004.53369	252.14453	-234.69774	977.26489	250.70674	-252.52238	997.23773	240.55612	-291.13098	996.28528	239.03009	-319.31238	1025.70947	245.00217	-196.97350	1023.54681	240.37447	-168.82881	1063.17651	223.92024	-163.41045	1091.16333	207.00136	-143.52507	836.69397	177.31799	-147.48485	856.45410	230.64331	-239.03568	932.41235	198.67819	-75.56405	
4615	19.225	1056.14307	249.88580	-241.39758	997.89838	249.28319	-211.65550	959.94153	228.25601	-193.50258	1017.34735	249.28871	-242.67015	990.97986	244.66980	-261.42267	1015.47607	232.30402	-297.23029	1018.21399	225.62965	-323.93933	1038.39233	242.12326	-204.97948	1037.33606	234.07921	-177.89024	1076.86218	215.72922	-178.39989	1105.29272	194.38020	-164.07758	851.83582	168.64365	-155.41733	868.06415	222.82990	-246.17809	944.38196	194.79060	-83.82951	
4616	19.229	1069.07861	246.69798	-249.56314	1010.31586	246.67401	-219.02823	973.07855	223.87790	-202.28513	1030.20764	246.57343	-250.65976	1004.22437	239.34944	-269.65591	1032.78882	226.28119	-302.70352	1038.79065	214.83676	-326.65991	1051.19238	239.47227	-213.02649	1050.30859	228.80975	-186.77989	1089.63049	209.95779	-192.56439	1117.57947	184.95465	-183.78523	867.29108	159.82858	-163.96504	880.20941	214.92876	-253.59431	957.19189	190.50836	-92.11929	
4617	19.233	1082.13574	243.49385	-257.74063	1022.89539	244.03563	-226.41785	986.17487	219.59879	-211.00407	1043.13147	243.80774	-258.66971	1016.85437	234.85956	-277.38007	1048.80859	222.73969	-308.08643	1057.39807	207.30995	-328.54681	1064.08936	236.84303	-221.13707	1062.63464	224.61008	-195.19322	1101.76965	206.70232	-205.15634	1128.55322	178.83998	-201.39758	883.11493	150.82822	-173.23680	892.80933	207.18034	-261.17654	970.82678	185.36469	-100.54384	
4618	19.237	1095.33752	240.26227	-265.93231	1035.80298	241.03162	-234.15334	999.22375	215.41983	-219.63826	1056.16858	240.79140	-266.71936	1028.83728	231.25377	-284.69858	1063.37427	221.65225	-313.80212	1073.65137	203.25323	-330.80829	1077.07153	234.01402	-229.34538	1074.43323	221.47481	-202.96962	1113.52515	205.74161	-215.72040	1138.78149	175.70726	-215.97336	899.33936	141.82425	-183.07358	905.74414	199.76982	-268.80972	985.02820	179.32439	-109.19762	
4619	19.242	1108.72192	236.93536	-274.17233	1049.14990	237.45901	-242.44046	1012.21771	211.34213	-228.16652	1069.38379	237.40747	-274.84622	1040.27173	228.51546	-291.59808	1076.51501	222.60504	-319.95941	1087.40222	202.23708	-334.47137	1090.14368	230.85410	-237.65465	1085.69141	219.31451	-210.14738	1125.01135	206.55641	-224.18187	1148.63525	174.82941	-227.03632	915.85309	133.20053	-193.12350	918.91333	192.85664	-276.45068	999.41852	172.76483	-118.10364	
4620	19.246	1122.30481	233.45735	-282.47595	1062.94324	233.32954	-251.23822	1025.14978	207.36674	-236.56767	1082.79016	233.63751	-283.03903	1051.38794	226.55054	-297.95520	1088.33447	224.81418	-326.29483	1098.69421	203.29755	-339.99747	1103.31226	227.35133	-246.03867	1096.33386	217.94774	-216.99561	1136.23633	208.51262	-230.83522	1158.17456	175.33754	-234.61554	932.36322	125.38850	-202.99095	932.22681	186.65776	-284.12015	1013.63544	166.26756	-127.18019	
4621	19.250	1136.04578	229.83961	-290.80182	1077.10583	228.77179	-260.36044	1038.01282	203.49480	-244.82063	1096.33887	229.53937	-291.23749	1062.51453	225.18057	-303.61017	1098.99792	227.49474	-332.46057	1107.63257	205.36337	-347.10114	1116.55200	223.56802	-254.48547	1106.35266	217.18817	-223.98189	1147.15356	211.06293	-236.17357	1167.21228	176.54259	-239.12456	948.48279	118.63556	-212.41318	945.60242	181.43492	-291.87500	1027.41138	160.42693	-136.24049	
4622	19.254	1149.87195	226.10374	-299.09427	1091.48096	223.97337	-269.54709	1050.79980	199.72734	-252.90422	1109.97900	225.21182	-299.40497	1074.00952	224.13148	-308.48016	1108.79260	230.16141	-338.29886	1114.28503	207.70473	-354.87949	1129.79370	219.61316	-262.99756	1115.90515	216.87431	-231.66344	1157.66809	213.81894	-240.68774	1175.42505	178.11331	-241.12822	963.91077	112.90265	-221.35483	958.99432	177.33057	-299.79568	1040.58569	155.77533	-145.05440	
4623	19.258	1163.71948	222.22023	-307.34372	1105.84924	219.10812	-278.50818	1063.50342	196.06554	-260.79724	1123.69312	220.73424	-307.55612	1086.17590	223.02466	-312.63818	1118.13660	232.59222	-343.78619	1118.82434	210.12032	-362.15680	1142.97192	215.63930	-271.58847	1125.28857	216.79031	-240.50954	1167.63721	216.55490	-244.88130	1182.47095	180.08224	-241.21974	978.51520	107.99996	-229.94757	972.40405	174.23404	-307.93799	1053.09534	152.69130	-153.45984	
4624	19.263	1177.54407	218.16153	-315.56348	1119.87524	214.20743	-286.88489	1076.11682	192.51045	-268.47858	1137.46973	216.14787	-315.72522	1099.18091	221.45599	-316.32196	1127.50769	234.64731	-348.89371	1121.81189	212.82173	-367.92834	1156.08960	211.79311	-280.30658	1134.77026	216.61835	-250.73289	1176.96350	219.17232	-249.38133	1188.16650	182.76863	-240.12683	992.28833	103.74655	-238.37256	985.84680	171.83481	-316.26636	1064.99304	151.18655	-161.46342	
4625	19.267	1191.31604	213.96170	-323.73877	1132.99805	209.09404	-294.20200	1088.63293	189.06303	-275.92783	1151.26001	211.47652	-323.90894	1113.01892	219.15442	-319.87497	1137.30139	236.12553	-353.60913	1124.28601	216.05522	-371.66876	1169.21057	208.11916	-289.19641	1144.48560	215.98418	-262.18536	1185.73779	221.59068	-254.83698	1192.59656	186.63409	-238.84111	1005.27966	100.02204	-246.75957	999.29486	169.81680	-324.61923	1076.49426	150.74780	-169.24509	
4626	19.271	1205.02039	209.68060	-331.84171	1144.66272	203.50360	-300.13202	1101.06262	185.70416	-283.14365	1164.97522	206.73460	-332.05560	1127.56250	216.10254	-323.67877	1147.73181	236.77699	-358.10135	1127.54028	219.81703	-373.44598	1182.39783	204.50641	-298.20401	1154.52075	214.56087	-274.35480	1194.31421	223.64006	-261.58835	1196.09412	192.04803	-238.50386	1017.55731	96.76191	-255.14517	1012.67462	167.98816	-332.76743	1087.92200	150.49318	-177.03192	
4627	19.275	1218.64526	205.36891	-339.86700	1155.18665	197.45714	-305.18832	1113.67029	182.02492	-290.23679	1178.54553	201.92987	-340.13019	1142.61523	212.51749	-328.08023	1158.81909	236.49905	-362.85190	1132.69714	223.89551	-373.94278	1195.63940	200.67171	-307.09518	1165.07776	212.16789	-286.51657	1203.20447	225.08128	-269.43176	1199.20886	199.08211	-240.05922	1029.19849	93.92264	-263.50980	1025.93494	166.24374	-340.55591	1099.55554	149.61040	-184.97754	
4628	19.279	1232.17188	201.06837	-347.83316	1166.22839	191.55496	-310.94638	1127.00378	177.23367	-297.59424	1191.95557	197.06926	-348.16138	1157.92126	208.67555	-333.40073	1170.37244	235.36319	-368.53348	1140.32458	228.05728	-374.34781	1208.88928	196.31418	-315.57910	1176.54675	208.87068	-298.06824	1212.88757	225.68884	-277.70248	1202.78186	207.40372	-243.91811	1040.31702	91.43941	-271.82971	1039.11694	164.45259	-348.03909	1111.54663	147.67909	-193.12498	
4629	19.283	1245.58923	196.77737	-355.75137	1179.66089	186.56929	-319.00922	1140.55383	172.17191	-304.98141	1205.21619	192.15768	-356.21948	1173.15344	204.75185	-339.95389	1182.05090	233.46980	-375.76923	1150.34961	232.03157	-376.13248	1222.17566	191.36043	-323.53296	1189.29944	205.00040	-308.69516	1223.67590	225.20280	-285.58575	1208.04346	216.12076	-249.77205	1051.08203	89.18848	-280.11761	1052.37512	162.39659	-355.51596	1123.97009	144.64516	-201.42325	
4630	19.288	1258.89404	192.42780	-363.62372	1195.49329	182.64336	-329.34082	1153.55835	167.59937	-310.77673	1218.32654	187.20045	-364.35715	1187.90369	200.80933	-347.93216	1193.50330	230.72380	-384.88687	1162.20044	235.27611	-380.80487	1235.57434	186.00079	-331.05432	1203.50378	200.99725	-318.10675	1235.69666	223.23697	-292.41455	1216.39868	223.67320	-256.56995	1061.70959	86.99899	-288.41431	1065.92102	159.85773	-363.40335	1136.89795	140.63884	-209.75146	
